<?xml version="1.0" encoding="utf-8"?>
<!-- Generator: Adobe Illustrator 26.0.2, SVG Export Plug-In . SVG Version: 6.00 Build 0)  -->
<svg version="1.1" id="Layer_1" xmlns="http://www.w3.org/2000/svg" xmlns:xlink="http://www.w3.org/1999/xlink" x="0px" y="0px"
	 viewBox="0 0 113 43" style="enable-background:new 0 0 113 43;" xml:space="preserve">
<style type="text/css">
	.st0{fill:#FFFFFF;stroke:#8ACAD9;stroke-width:0.5;stroke-miterlimit:10;}
</style>
<path class="st0" d="M88.64,0.25c-6.18,0-11.81,2.05-16.07,5.42c-4.27-3.37-9.9-5.42-16.07-5.42S44.69,2.3,40.43,5.67
	c-4.27-3.37-9.9-5.42-16.07-5.42C11.04,0.25,0.25,9.76,0.25,21.5c0,11.74,10.79,21.25,24.11,21.25c6.18,0,11.81-2.05,16.07-5.42
	c4.27,3.37,9.9,5.42,16.07,5.42s11.81-2.05,16.07-5.42c4.27,3.37,9.9,5.42,16.07,5.42c13.31,0,24.11-9.51,24.11-21.25
	C112.75,9.76,101.96,0.25,88.64,0.25z"/>
</svg>
