<?xml version="1.0" encoding="utf-8"?>
<!-- Generator: Adobe Illustrator 26.0.2, SVG Export Plug-In . SVG Version: 6.00 Build 0)  -->
<svg version="1.1" id="Layer_1" xmlns="http://www.w3.org/2000/svg" xmlns:xlink="http://www.w3.org/1999/xlink" x="0px" y="0px"
	 viewBox="0 0 393 387.55" style="enable-background:new 0 0 393 387.55;" xml:space="preserve">
<style type="text/css">
	.st0{fill:none;stroke:#17818C;stroke-width:2;stroke-linecap:round;stroke-miterlimit:10;}
	.st1{fill:none;stroke:#17818C;stroke-width:2;stroke-linecap:round;stroke-miterlimit:10;stroke-dasharray:0,4.0699;}
	.st2{fill:none;stroke:#17818C;stroke-width:2;stroke-linecap:round;stroke-miterlimit:10;stroke-dasharray:0,4.0022;}
	.st3{fill:none;stroke:#17818C;stroke-width:2;stroke-linecap:round;stroke-miterlimit:10;stroke-dasharray:0,4.0634;}
	.st4{fill:none;stroke:#17818C;stroke-width:2;stroke-linecap:round;stroke-miterlimit:10;stroke-dasharray:0,4.0026;}
	.st5{fill:none;stroke:#17818C;stroke-width:2;stroke-linecap:round;stroke-miterlimit:10;stroke-dasharray:0,3.8886;}
	.st6{fill:none;stroke:#17818C;stroke-width:2;stroke-linecap:round;stroke-miterlimit:10;stroke-dasharray:0,4.2143;}
	.st7{fill:none;stroke:#17818C;stroke-width:2;stroke-linecap:round;stroke-miterlimit:10;stroke-dasharray:0,3.9538;}
	.st8{fill:none;stroke:#17818C;stroke-width:2;stroke-linecap:round;stroke-miterlimit:10;stroke-dasharray:0,4.0568;}
	.st9{fill:#8ACAD9;stroke:#54A8B5;stroke-width:2;stroke-miterlimit:10;}
	.st10{fill:#FFFFFF;}
</style>
<g>
	<g>
		<g>
			<g>
				<g>
					<line class="st0" x1="170.77" y1="185.71" x2="170.77" y2="185.71"/>
					<line class="st1" x1="174.84" y1="185.71" x2="221.64" y2="185.71"/>
					<line class="st0" x1="223.68" y1="185.71" x2="223.68" y2="185.71"/>
				</g>
			</g>
			<g>
				<g>
					<line class="st0" x1="58.33" y1="163.62" x2="58.33" y2="163.62"/>
					<line class="st2" x1="58.33" y1="159.62" x2="58.33" y2="105.59"/>
					<line class="st0" x1="58.33" y1="103.59" x2="58.33" y2="103.59"/>
					<line class="st3" x1="62.39" y1="103.59" x2="137.56" y2="103.59"/>
					<line class="st0" x1="139.6" y1="103.59" x2="139.6" y2="103.59"/>
					<line class="st2" x1="139.6" y1="107.59" x2="139.6" y2="161.62"/>
					<line class="st0" x1="139.6" y1="163.62" x2="139.6" y2="163.62"/>
				</g>
			</g>
			<g>
				<g>
					<line class="st0" x1="294.03" y1="24" x2="294.03" y2="24"/>
					<line class="st4" x1="294.03" y1="28" x2="294.03" y2="98.05"/>
					<line class="st0" x1="294.03" y1="100.05" x2="294.03" y2="100.05"/>
				</g>
			</g>
			<g>
				<g>
					<line class="st0" x1="98.96" y1="24" x2="98.96" y2="24"/>
					<line class="st4" x1="98.96" y1="28" x2="98.96" y2="98.05"/>
					<line class="st0" x1="98.96" y1="100.05" x2="98.96" y2="100.05"/>
				</g>
			</g>
			<g>
				<g>
					<line class="st0" x1="253.39" y1="163.62" x2="253.39" y2="163.62"/>
					<line class="st2" x1="253.39" y1="159.62" x2="253.39" y2="105.59"/>
					<line class="st0" x1="253.39" y1="103.59" x2="253.39" y2="103.59"/>
					<line class="st3" x1="257.46" y1="103.59" x2="332.63" y2="103.59"/>
					<line class="st0" x1="334.66" y1="103.59" x2="334.66" y2="103.59"/>
					<line class="st2" x1="334.66" y1="107.59" x2="334.66" y2="161.62"/>
					<line class="st0" x1="334.66" y1="163.62" x2="334.66" y2="163.62"/>
				</g>
			</g>
			<g>
				<g>
					<line class="st0" x1="278.47" y1="20.17" x2="278.47" y2="20.17"/>
					<line class="st5" x1="282.36" y1="20.17" x2="307.64" y2="20.17"/>
					<line class="st0" x1="309.58" y1="20.17" x2="309.58" y2="20.17"/>
				</g>
			</g>
			<g>
				<g>
					<line class="st0" x1="81.91" y1="20.17" x2="81.91" y2="20.17"/>
					<line class="st6" x1="86.13" y1="20.17" x2="113.52" y2="20.17"/>
					<line class="st0" x1="115.63" y1="20.17" x2="115.63" y2="20.17"/>
				</g>
			</g>
		</g>
		<g>
			<g>
				<line class="st0" x1="213.62" y1="385.49" x2="213.62" y2="385.49"/>
				<line class="st7" x1="209.66" y1="385.49" x2="180.01" y2="385.49"/>
				<line class="st0" x1="178.03" y1="385.49" x2="178.03" y2="385.49"/>
				<line class="st8" x1="178.03" y1="381.43" x2="178.03" y2="265.82"/>
				<line class="st0" x1="178.03" y1="263.8" x2="178.03" y2="263.8"/>
				<line class="st7" x1="181.99" y1="263.8" x2="211.64" y2="263.8"/>
				<line class="st0" x1="213.62" y1="263.8" x2="213.62" y2="263.8"/>
				<line class="st8" x1="213.62" y1="267.85" x2="213.62" y2="383.47"/>
			</g>
		</g>
	</g>
	<g>
		<ellipse class="st9" cx="195.77" cy="229.73" rx="32.69" ry="18.11"/>
		<g>
			<g>
				<path class="st10" d="M189.35,229.27h-6.97v-6.11h6.97V229.27z M187.72,224.49h-3.7v3.44h3.7V224.49z M194.19,235.64v1.31
					h-10.06v-3.86h7.96v-1.21h-7.99v-1.3h9.65v3.74h-7.96v1.3h8.4V235.64z M193.75,229.89h-1.69v-7.51h1.69V229.89z"/>
				<path class="st10" d="M198.68,232.17c1.55-0.02,3-0.1,4.72-0.39l0.15,1.38c-1.99,0.34-3.63,0.39-5.47,0.39h-1.01v-5.63h3.58
					v-2.64h-3.61v-1.35h5.23v5.34h-3.58v2.9H198.68z M204.58,222.71h1.56v13.64h-1.56v-7.44h-1.66v-1.38h1.66V222.71z
					 M209.15,222.38v14.7h-1.6v-14.7H209.15z"/>
			</g>
		</g>
	</g>
	<ellipse class="st9" cx="59.01" cy="185.54" rx="32.69" ry="18.11"/>
	<ellipse class="st9" cx="138.91" cy="185.54" rx="32.69" ry="18.11"/>
	<g>
		<g>
			<path class="st10" d="M45.8,184.43c0,3.19-1.6,5.19-3.79,5.19c-2.18,0-3.78-2-3.78-5.19c0-3.16,1.6-5.18,3.78-5.18
				C44.21,179.26,45.8,181.27,45.8,184.43z M39.84,184.43c0,2.31,0.9,3.7,2.17,3.7c1.29,0,2.18-1.38,2.18-3.7
				c0-2.28-0.9-3.66-2.18-3.66C40.74,180.77,39.84,182.15,39.84,184.43z M49.84,178.17v14.75h-1.69v-14.75H49.84z"/>
			<path class="st10" d="M66.01,185.8v1.37h-13.3v-1.37H66.01z M54.12,181.62c0-1.86,2.07-2.98,5.24-2.98s5.24,1.12,5.24,2.98
				c0,1.87-2.07,3-5.24,3S54.12,183.49,54.12,181.62z M56.08,191.24h8.45v1.37H54.38v-4.28h1.69v2.91H56.08z M55.85,181.62
				c0,1.04,1.35,1.64,3.52,1.64c2.15,0,3.5-0.6,3.5-1.64c0-1.03-1.35-1.63-3.5-1.63C57.2,179.99,55.85,180.59,55.85,181.62z"/>
			<path class="st10" d="M73.12,182.43c0,2.44,1.51,4.98,3.81,5.96L76,189.71c-1.71-0.75-3.03-2.34-3.71-4.25
				c-0.65,2.05-1.97,3.79-3.7,4.62l-0.96-1.33c2.28-1.06,3.79-3.79,3.79-6.32v-1.4h-3.27v-1.38h8.24v1.38h-3.27
				C73.12,181.03,73.12,182.43,73.12,182.43z M79.8,178.18v14.7h-1.69v-14.7H79.8z"/>
		</g>
	</g>
	<g>
		<g>
			<path class="st10" d="M125.47,184.43c0,3.19-1.6,5.19-3.79,5.19c-2.18,0-3.78-2-3.78-5.19c0-3.16,1.6-5.18,3.78-5.18
				C123.88,179.26,125.47,181.27,125.47,184.43z M119.51,184.43c0,2.31,0.9,3.7,2.17,3.7c1.29,0,2.18-1.38,2.18-3.7
				c0-2.28-0.9-3.66-2.18-3.66C120.41,180.77,119.51,182.15,119.51,184.43z M129.51,178.17v14.75h-1.69v-14.75H129.51z"/>
			<path class="st10" d="M139.34,184.9c-0.68,0.75-1.73,1.19-2.91,1.19c-2.2,0-3.84-1.47-3.84-3.53c0-2.08,1.64-3.55,3.84-3.55
				c1.21,0,2.23,0.46,2.91,1.19h3.55v-2.04h1.68v8.68h-1.68v-1.94H139.34z M136.43,184.68c1.27,0,2.21-0.85,2.21-2.12
				c0-1.29-0.94-2.13-2.21-2.13c-1.3,0-2.25,0.85-2.25,2.13C134.18,183.83,135.13,184.68,136.43,184.68z M144.64,190.02
				c0,1.81-1.91,2.87-4.97,2.87s-4.95-1.06-4.95-2.87c0-1.79,1.89-2.85,4.95-2.85C142.73,187.17,144.64,188.23,144.64,190.02z
				 M142.98,190.02c0-0.98-1.21-1.53-3.3-1.53c-2.08,0-3.31,0.55-3.31,1.53c0,1.01,1.22,1.55,3.31,1.55S142.98,191.02,142.98,190.02
				z M140.11,181.57c0.08,0.31,0.13,0.63,0.13,0.99s-0.05,0.68-0.15,0.99h2.8v-1.99h-2.78V181.57z"/>
			<path class="st10" d="M155.06,179.3c0,3.88-2.59,6.76-6.77,8.12l-0.73-1.33c3.24-1.06,5.39-3.01,5.7-5.42h-4.93v-1.37H155.06z
				 M159.93,191.24v1.37h-9.8v-4.69h1.68v3.32H159.93z M157.88,182.6v-4.41h1.68v10.83h-1.68v-5.03h-2.9v-1.38L157.88,182.6
				L157.88,182.6z"/>
		</g>
	</g>
	<g>
		<ellipse class="st9" cx="254.08" cy="185.54" rx="32.69" ry="18.11"/>
		<ellipse class="st9" cx="333.98" cy="185.54" rx="32.69" ry="18.11"/>
		<g>
			<g>
				<path class="st10" d="M246.12,186.37v1.32h-13.3v-1.32h5.81v-0.96c-2.57-0.13-3.99-0.83-3.99-2.08c0-1.4,1.73-2.12,4.83-2.12
					c3.09,0,4.82,0.72,4.82,2.12c0,1.25-1.42,1.95-3.97,2.08v0.96H246.12z M245.39,180.71h-11.9v-1.29h5.14v-1.33h1.69v1.33h5.06
					L245.39,180.71L245.39,180.71z M244.51,190.71c0,1.48-1.84,2.26-5.06,2.26c-3.21,0-5.06-0.78-5.06-2.26s1.86-2.26,5.06-2.26
					C242.67,188.46,244.51,189.24,244.51,190.71z M242.8,190.71c0-0.7-1.14-1.04-3.35-1.04c-2.2,0-3.34,0.34-3.34,1.04
					s1.14,1.04,3.34,1.04C241.66,191.76,242.8,191.42,242.8,190.71z M239.48,184.29c1.99,0,3.04-0.33,3.04-0.96
					c0-0.65-1.06-0.94-3.04-0.94c-2,0-3.04,0.29-3.04,0.94C236.44,183.96,237.48,184.29,239.48,184.29z"/>
				<path class="st10" d="M252.33,182.21c0,2.38,0.9,4.87,2.87,6.11l-0.94,1.3c-1.33-0.81-2.21-2.25-2.72-3.89
					c-0.52,1.81-1.48,3.35-2.9,4.22l-1.03-1.27c2.08-1.24,3.09-3.88,3.09-6.38v-2.65h1.63V182.21z M255.78,178.55h1.58v13.74h-1.58
					v-7.51h-2.17v-1.37h2.17L255.78,178.55L255.78,178.55z M260.37,178.27v14.7h-1.6v-14.7H260.37z"/>
				<path class="st10" d="M266.98,186.62c-2.21,0-3.91-1.55-3.91-3.68c0-2.15,1.69-3.68,3.91-3.68s3.89,1.53,3.89,3.68
					C270.88,185.07,269.2,186.62,266.98,186.62z M266.98,185.17c1.29,0,2.26-0.9,2.26-2.23c0-1.35-0.98-2.23-2.26-2.23
					c-1.3,0-2.26,0.88-2.26,2.23C264.72,184.27,265.68,185.17,266.98,185.17z M275.34,191.34v1.37h-10.03v-4.82H267v3.45H275.34z
					 M274.91,188.96h-1.68v-10.68h1.68V188.96z"/>
			</g>
		</g>
		<g>
			<g>
				<path class="st10" d="M326.17,186.37v1.32h-13.3v-1.32h5.81v-0.96c-2.57-0.13-3.99-0.83-3.99-2.08c0-1.4,1.73-2.12,4.83-2.12
					c3.09,0,4.82,0.72,4.82,2.12c0,1.25-1.42,1.95-3.97,2.08v0.96H326.17z M325.44,180.71h-11.9v-1.29h5.14v-1.33h1.69v1.33h5.06
					L325.44,180.71L325.44,180.71z M324.56,190.71c0,1.48-1.84,2.26-5.06,2.26c-3.21,0-5.06-0.78-5.06-2.26s1.86-2.26,5.06-2.26
					C322.72,188.46,324.56,189.24,324.56,190.71z M322.85,190.71c0-0.7-1.14-1.04-3.35-1.04c-2.2,0-3.34,0.34-3.34,1.04
					s1.14,1.04,3.34,1.04C321.71,191.76,322.85,191.42,322.85,190.71z M319.53,184.29c1.99,0,3.04-0.33,3.04-0.96
					c0-0.65-1.06-0.94-3.04-0.94c-2,0-3.04,0.29-3.04,0.94C316.48,183.96,317.52,184.29,319.53,184.29z"/>
				<path class="st10" d="M332.37,182.21c0,2.38,0.9,4.87,2.87,6.11l-0.94,1.3c-1.33-0.81-2.21-2.25-2.72-3.89
					c-0.52,1.81-1.48,3.35-2.9,4.22l-1.03-1.27c2.08-1.24,3.09-3.88,3.09-6.38v-2.65h1.63V182.21z M335.83,178.55h1.58v13.74h-1.58
					v-7.51h-2.17v-1.37h2.17V178.55z M340.42,178.27v14.7h-1.6v-14.7H340.42z"/>
				<path class="st10" d="M349.8,185.01c-0.68,0.75-1.73,1.19-2.91,1.19c-2.2,0-3.84-1.47-3.84-3.53c0-2.08,1.64-3.55,3.84-3.55
					c1.21,0,2.23,0.46,2.91,1.19h3.55v-2.04h1.68v8.68h-1.68v-1.94H349.8z M346.88,184.77c1.27,0,2.21-0.85,2.21-2.12
					c0-1.29-0.94-2.13-2.21-2.13c-1.3,0-2.25,0.85-2.25,2.13C344.64,183.93,345.58,184.77,346.88,184.77z M355.09,190.12
					c0,1.81-1.91,2.87-4.97,2.87s-4.95-1.06-4.95-2.87c0-1.79,1.89-2.85,4.95-2.85S355.09,188.33,355.09,190.12z M353.43,190.12
					c0-0.98-1.21-1.53-3.3-1.53c-2.08,0-3.31,0.55-3.31,1.53c0,1.01,1.22,1.55,3.31,1.55S353.43,191.12,353.43,190.12z
					 M350.56,181.67c0.08,0.31,0.13,0.63,0.13,0.99s-0.05,0.68-0.15,0.99h2.8v-1.99h-2.78V181.67z"/>
			</g>
		</g>
	</g>
	<ellipse class="st9" cx="345.32" cy="20.17" rx="32.69" ry="18.11"/>
	<g>
		<ellipse class="st9" cx="47.68" cy="20.17" rx="32.69" ry="18.11"/>
		<g>
			<g>
				<path class="st10" d="M30.64,20.67c-2.23,0-3.91-1.45-3.91-3.52s1.68-3.5,3.91-3.5c2.25,0,3.92,1.43,3.92,3.5
					S32.89,20.67,30.64,20.67z M30.64,19.25c1.32,0,2.28-0.81,2.28-2.1c0-1.27-0.96-2.1-2.28-2.1c-1.3,0-2.26,0.83-2.26,2.1
					C28.38,18.44,29.34,19.25,30.64,19.25z M38.2,24.69c0,1.76-1.87,2.82-4.9,2.82c-3.01,0-4.9-1.06-4.9-2.82
					c0-1.77,1.89-2.83,4.9-2.83C36.33,21.86,38.2,22.92,38.2,24.69z M36.54,24.69c0-0.98-1.19-1.5-3.24-1.5
					c-2.05,0-3.24,0.52-3.24,1.5c0,0.96,1.19,1.48,3.24,1.48C35.35,26.18,36.54,25.65,36.54,24.69z M38.04,16.19v1.79h2.04v1.38
					h-2.04v2.08h-1.68v-8.66h1.68v2.02h2.04v1.38L38.04,16.19L38.04,16.19z"/>
				<path class="st10" d="M48.62,16.7c-0.91,2.34-3.08,3.99-6.25,4.92l-0.67-1.33c3.45-0.96,5.36-2.77,5.65-5.06h-4.88v-1.35h6.67
					c0,0.52-0.05,1.01-0.13,1.47h3.03v-2.52h1.68v8.65h-1.68v-1.69h-3.57v-1.37h3.57v-1.69h-3.42V16.7z M53.81,24.53
					c0,1.81-1.94,2.91-4.92,2.91s-4.9-1.11-4.9-2.91c0-1.79,1.92-2.9,4.9-2.9S53.81,22.75,53.81,24.53z M52.15,24.53
					c0-1.01-1.25-1.58-3.26-1.58c-1.99,0-3.24,0.57-3.24,1.58c0,1.03,1.25,1.6,3.24,1.6C50.9,26.12,52.15,25.55,52.15,24.53z"/>
				<path class="st10" d="M56.6,23.41c2.74-0.02,6.35,0,9.48-0.42l0.13,1.24c-3.27,0.57-6.71,0.59-9.39,0.57L56.6,23.41z
					 M65.78,16.03h-8.89V14.7h3.61v-1.73h1.68v1.73h3.6V16.03z M61.35,16.75c2.1,0,3.55,1.11,3.55,2.77s-1.45,2.77-3.55,2.77
					s-3.55-1.11-3.55-2.77S59.25,16.75,61.35,16.75z M61.35,18.03c-1.17,0-1.97,0.55-1.97,1.48c0,0.91,0.8,1.48,1.97,1.48
					c1.17,0,1.97-0.57,1.97-1.48C63.32,18.59,62.53,18.03,61.35,18.03z M68.62,12.81v14.72h-1.69V12.81H68.62z"/>
			</g>
		</g>
	</g>
	<g>
		<ellipse class="st9" cx="150.25" cy="20.17" rx="32.69" ry="18.11"/>
		<g>
			<g>
				<path class="st10" d="M136.81,19.06c0,3.19-1.6,5.19-3.79,5.19c-2.18,0-3.78-2-3.78-5.19c0-3.16,1.6-5.18,3.78-5.18
					C135.21,13.87,136.81,15.89,136.81,19.06z M130.85,19.06c0,2.31,0.9,3.7,2.17,3.7c1.29,0,2.18-1.38,2.18-3.7
					c0-2.28-0.9-3.66-2.18-3.66C131.75,15.39,130.85,16.78,130.85,19.06z M140.85,12.78v14.75h-1.69V12.78H140.85z"/>
				<path class="st10" d="M151.64,21.09c-1.63-0.57-2.8-1.73-3.42-3.14c-0.65,1.61-1.89,2.91-3.63,3.53l-0.86-1.33
					c2.28-0.81,3.6-2.77,3.6-4.79v-0.21h-3.11V13.8h7.86v1.35h-3.06v0.2c0,1.84,1.25,3.66,3.45,4.43L151.64,21.09z M155.97,24.74
					c0,1.76-1.89,2.78-4.95,2.78c-3.08,0-4.97-1.03-4.97-2.78c0-1.74,1.89-2.78,4.97-2.78C154.09,21.95,155.97,23,155.97,24.74z
					 M154.3,24.74c0-0.96-1.2-1.48-3.27-1.48c-2.1,0-3.29,0.52-3.29,1.48s1.19,1.48,3.29,1.48C153.09,26.21,154.3,25.69,154.3,24.74
					z M154.23,16.5v-3.7h1.68v8.76h-1.68v-3.7h-2.61v-1.37L154.23,16.5L154.23,16.5z"/>
				<path class="st10" d="M166.43,13.44c0,3.86-2.44,6.14-6.9,7.12l-0.59-1.35c3.65-0.75,5.44-2.33,5.65-4.4h-4.9v-1.37H166.43z
					 M171.26,26.03v1.33h-10.04v-3.92h7.93V22.2h-7.96v-1.3h9.64v3.76h-7.93v1.37L171.26,26.03L171.26,26.03z M170.82,20.25h-1.68
					v-7.46h1.68V20.25z"/>
			</g>
		</g>
	</g>
	<g>
		<ellipse class="st9" cx="242.74" cy="20.17" rx="32.69" ry="18.11"/>
		<g>
			<g>
				<path class="st10" d="M228.76,13.69c0,3.84-2.59,6.48-6.95,7.6l-0.63-1.32c3.47-0.88,5.5-2.7,5.8-4.93h-5v-1.35H228.76z
					 M223.57,21.72h9.61v5.6h-9.61V21.72z M225.23,25.97h6.3v-2.91h-6.3V25.97z M233.17,12.78v8.27h-1.68v-8.27H233.17z"/>
				<path class="st10" d="M241.46,16.44c0,2.7,1.5,5.41,3.81,6.45l-0.98,1.33c-1.69-0.8-2.98-2.43-3.65-4.41
					c-0.67,2.13-1.97,3.88-3.74,4.74l-0.99-1.4c2.34-1.06,3.88-3.87,3.88-6.71v-2.41h1.68v2.41H241.46z M248.14,12.78v14.75h-1.69
					V12.78H248.14z"/>
				<path class="st10" d="M264.31,20.42v1.37h-13.3v-1.37H264.31z M252.42,16.23c0-1.86,2.07-2.98,5.24-2.98s5.24,1.12,5.24,2.98
					c0,1.87-2.07,3-5.24,3S252.42,18.11,252.42,16.23z M254.38,25.87h8.45v1.37h-10.15v-4.29h1.7V25.87z M254.15,16.23
					c0,1.04,1.35,1.64,3.52,1.64c2.15,0,3.5-0.6,3.5-1.64c0-1.03-1.35-1.63-3.5-1.63C255.5,14.61,254.15,15.22,254.15,16.23z"/>
			</g>
		</g>
	</g>
	<g>
		<g>
			<path class="st10" d="M337.37,21v1.32h-13.3V21h5.81v-0.96c-2.57-0.13-3.99-0.83-3.99-2.08c0-1.4,1.73-2.12,4.83-2.12
				c3.09,0,4.82,0.72,4.82,2.12c0,1.25-1.42,1.95-3.97,2.08V21H337.37z M336.64,15.34h-11.9v-1.29h5.14v-1.33h1.69v1.33h5.06
				L336.64,15.34L336.64,15.34z M335.76,25.34c0,1.48-1.84,2.26-5.06,2.26c-3.21,0-5.06-0.78-5.06-2.26c0-1.48,1.86-2.26,5.06-2.26
				C333.92,23.08,335.76,23.86,335.76,25.34z M334.05,25.34c0-0.7-1.14-1.04-3.35-1.04c-2.2,0-3.34,0.34-3.34,1.04
				s1.14,1.04,3.34,1.04C332.91,26.39,334.05,26.03,334.05,25.34z M330.73,18.91c1.99,0,3.04-0.33,3.04-0.96
				c0-0.65-1.06-0.94-3.04-0.94c-2,0-3.04,0.29-3.04,0.94C327.68,18.58,328.72,18.91,330.73,18.91z"/>
			<path class="st10" d="M346.89,20.97c-1.58-0.57-2.72-1.68-3.35-3.11c-0.65,1.63-1.89,2.91-3.66,3.55L339,20.06
				c2.36-0.8,3.65-2.78,3.65-4.93v-1.45h1.69v1.37c0,2.04,1.22,3.88,3.45,4.61L346.89,20.97z M351.31,24.78
				c0,1.77-1.89,2.82-4.97,2.82c-3.06,0-4.95-1.04-4.95-2.82s1.89-2.82,4.95-2.82C349.42,21.97,351.31,23.02,351.31,24.78z
				 M349.63,24.78c0-0.96-1.2-1.5-3.29-1.5s-3.27,0.54-3.27,1.5c0,0.96,1.19,1.5,3.27,1.5S349.63,25.74,349.63,24.78z M349.57,17.19
				h-2.98v-1.37h2.98v-2.95h1.68v8.68h-1.68V17.19z"/>
			<path class="st10" d="M361.48,21.16h-6.81v-7.03h6.81v1.24h3.06v-2.46h1.68v10.73h-1.68v-3.76h-3.06V21.16z M359.86,15.45h-3.53
				v4.36h3.53V15.45z M366.56,25.96v1.37h-9.92v-4.67h1.69v3.31h8.23V25.96z M361.48,16.72v1.79h3.06v-1.79H361.48z"/>
		</g>
	</g>
</g>
</svg>
